<svg width="226" height="72" viewBox="0 0 226 72" fill="none" xmlns="http://www.w3.org/2000/svg">
<path d="M69.8193 36.2906C68.7185 36.9225 67.3834 37.4219 65.8138 37.7888C64.2441 38.1558 62.6134 38.3392 60.9215 38.3392C58.6384 38.3392 56.6917 38.064 55.0813 37.5137C53.4913 36.9633 52.2886 36.1989 51.4733 35.2204C50.6783 34.2419 50.2808 33.1106 50.2808 31.8264C50.2808 30.7052 50.5865 29.7166 51.1981 28.8604C51.8096 28.0043 52.6556 27.3418 53.7359 26.8729C52.9002 26.4449 52.2581 25.8537 51.8096 25.0995C51.3815 24.3249 51.1675 23.4789 51.1675 22.5616C51.1675 21.3793 51.5344 20.2989 52.2683 19.3205C53.0225 18.342 54.164 17.5572 55.6928 16.9661C57.2217 16.3749 59.1073 16.0793 61.3495 16.0793C62.7561 16.0793 64.1422 16.2118 65.508 16.4768C66.8738 16.7418 68.0764 17.0986 69.116 17.547L67.4649 22.0724C65.5691 21.2366 63.6122 20.8187 61.5942 20.8187C60.1469 20.8187 59.0665 21.0124 58.353 21.3997C57.6396 21.7666 57.2828 22.2864 57.2828 22.9591C57.2828 24.1822 58.1696 24.7937 59.943 24.7937H65.9972V29.4108H59.5455C58.5059 29.4108 57.7211 29.5841 57.1911 29.9306C56.6611 30.2568 56.3961 30.746 56.3961 31.3983C56.3961 32.0914 56.7834 32.6316 57.558 33.0189C58.3326 33.4062 59.5353 33.5998 61.1661 33.5998C62.328 33.5998 63.5205 33.4469 64.7436 33.1412C65.987 32.815 67.0674 32.3768 67.9847 31.8264L69.8193 36.2906Z" fill="black"/>
<path d="M85.4032 29.2274C87.2989 29.8593 88.2468 31.1639 88.2468 33.1412C88.2468 34.6292 87.6659 35.8014 86.5039 36.6575C85.342 37.4933 83.6297 37.9112 81.3671 37.9112H72.0411V21.3385H80.939C83.0997 21.3385 84.7713 21.7157 85.9536 22.4699C87.1563 23.2241 87.7576 24.2841 87.7576 25.6499C87.7576 26.4449 87.5537 27.1481 87.1461 27.7597C86.7384 28.3712 86.1574 28.8604 85.4032 29.2274ZM77.2392 28.0043H80.4192C81.7645 28.0043 82.4372 27.5049 82.4372 26.506C82.4372 25.5479 81.7645 25.0689 80.4192 25.0689H77.2392V28.0043ZM80.8472 34.1502C82.2538 34.1502 82.957 33.6406 82.957 32.6214C82.957 31.6021 82.2742 31.0925 80.9084 31.0925H77.2392V34.1502H80.8472Z" fill="black"/>
<path d="M98.948 32.0098H96.9911V37.9112H91.1815V21.3385H96.9911V27.4539H99.0703L103.137 21.3385H109.283L103.718 29.2885L109.65 37.9112H102.801L98.948 32.0098Z" fill="black"/>
<path d="M128.454 21.3385V37.9112H122.645V25.9556H118.456L118.333 28.4935C118.252 30.6543 118.038 32.4379 117.691 33.8444C117.345 35.251 116.774 36.3517 115.979 37.1467C115.184 37.9213 114.093 38.3087 112.707 38.3087C111.994 38.3087 111.056 38.1761 109.894 37.9112L110.139 33.1718C110.506 33.2125 110.75 33.2329 110.873 33.2329C111.505 33.2329 111.984 33.0291 112.31 32.6214C112.636 32.2137 112.86 31.6735 112.982 31.0008C113.105 30.3077 113.186 29.3904 113.227 28.2489L113.472 21.3385H128.454Z" fill="black"/>
<path d="M149.42 21.3385V37.9112H143.886V36.1683C143.274 36.8206 142.541 37.32 141.684 37.6665C140.849 38.0131 139.952 38.1863 138.994 38.1863C136.833 38.1863 135.11 37.5544 133.826 36.2906C132.562 35.0267 131.93 33.131 131.93 30.6033V21.3385H137.74V29.6554C137.74 32.0404 138.668 33.2329 140.523 33.2329C141.44 33.2329 142.184 32.9169 142.755 32.285C143.325 31.6327 143.611 30.6441 143.611 29.3191V21.3385H149.42Z" fill="black"/>
<path d="M170.963 21.3385V34.8841C170.963 37.9621 170.127 40.2656 168.456 41.7944C166.784 43.3436 164.379 44.1182 161.24 44.1182C159.609 44.1182 158.08 43.9348 156.653 43.5679C155.226 43.2009 154.013 42.6607 153.015 41.9473L155.124 37.8806C155.797 38.431 156.643 38.859 157.662 39.1648C158.702 39.491 159.721 39.654 160.72 39.654C162.249 39.654 163.37 39.3177 164.083 38.645C164.797 37.9723 165.154 36.9735 165.154 35.6485V35.0981C164.032 36.4027 162.391 37.055 160.231 37.055C158.763 37.055 157.407 36.7289 156.164 36.0765C154.921 35.4039 153.932 34.4662 153.198 33.2635C152.464 32.0404 152.097 30.6339 152.097 29.0439C152.097 27.4743 152.464 26.0881 153.198 24.8855C153.932 23.6624 154.921 22.7247 156.164 22.0724C157.407 21.3997 158.763 21.0634 160.231 21.0634C162.595 21.0634 164.328 21.8278 165.429 23.3566V21.3385H170.963ZM161.607 32.4379C162.646 32.4379 163.502 32.122 164.175 31.49C164.868 30.8581 165.215 30.0427 165.215 29.0439C165.215 28.0451 164.878 27.2399 164.206 26.6283C163.533 25.9964 162.667 25.6804 161.607 25.6804C160.547 25.6804 159.67 25.9964 158.977 26.6283C158.304 27.2399 157.968 28.0451 157.968 29.0439C157.968 30.0427 158.315 30.8581 159.008 31.49C159.701 32.122 160.567 32.4379 161.607 32.4379Z" fill="black"/>
<path d="M59.7067 46.0099V55.9886H56.9126V48.248H53.1207V55.9886H50.3409V46.0099H59.7067Z" fill="black"/>
<path d="M65.8171 48.1339C66.6629 48.1339 67.3994 48.2955 68.0267 48.6186C68.6539 48.9417 69.1339 49.4074 69.4665 50.0156C69.8086 50.6143 69.9797 51.3176 69.9797 52.1254C69.9797 52.9237 69.8229 53.627 69.5092 54.2352C69.1956 54.8339 68.7537 55.2996 68.1835 55.6322C67.6133 55.9554 66.9528 56.1169 66.202 56.1169C65.3182 56.1169 64.6244 55.8461 64.1207 55.3044V58.7542H61.4122V52.1539C61.4122 51.3556 61.5928 50.6524 61.9539 50.0441C62.315 49.4359 62.8282 48.9655 63.4935 48.6329C64.1587 48.3002 64.9333 48.1339 65.8171 48.1339ZM65.6888 53.9644C66.1735 53.9644 66.5631 53.798 66.8577 53.4654C67.1619 53.1233 67.3139 52.6766 67.3139 52.1254C67.3139 51.5742 67.1619 51.1323 66.8577 50.7997C66.5631 50.4575 66.1735 50.2865 65.6888 50.2865C65.2041 50.2865 64.8145 50.4575 64.5199 50.7997C64.2253 51.1323 64.0779 51.5742 64.0779 52.1254C64.0779 52.6861 64.2205 53.1328 64.5056 53.4654C64.8002 53.798 65.1946 53.9644 65.6888 53.9644Z" fill="black"/>
<path d="M75.0949 56.1169C74.2681 56.1169 73.5221 55.9459 72.8568 55.6037C72.1916 55.2616 71.6689 54.7864 71.2887 54.1782C70.9181 53.57 70.7328 52.881 70.7328 52.1112C70.7328 51.3509 70.9181 50.6666 71.2887 50.0584C71.6689 49.4502 72.1868 48.9797 72.8426 48.6471C73.5078 48.305 74.2586 48.1339 75.0949 48.1339C75.9312 48.1339 76.682 48.305 77.3473 48.6471C78.0125 48.9797 78.5305 49.4502 78.9011 50.0584C79.2717 50.6571 79.4571 51.3414 79.4571 52.1112C79.4571 52.881 79.2717 53.57 78.9011 54.1782C78.5305 54.7864 78.0125 55.2616 77.3473 55.6037C76.682 55.9459 75.9312 56.1169 75.0949 56.1169ZM75.0949 53.9644C75.5701 53.9644 75.9597 53.8028 76.2638 53.4797C76.568 53.1471 76.72 52.6909 76.72 52.1112C76.72 51.5409 76.568 51.0943 76.2638 50.7712C75.9597 50.448 75.5701 50.2865 75.0949 50.2865C74.6197 50.2865 74.2301 50.448 73.926 50.7712C73.6218 51.0943 73.4698 51.5409 73.4698 52.1112C73.4698 52.6909 73.6218 53.1471 73.926 53.4797C74.2301 53.8028 74.6197 53.9644 75.0949 53.9644Z" fill="black"/>
<path d="M84.8186 54.0499C85.1893 54.0499 85.5076 53.9976 85.7737 53.8931C86.0494 53.7885 86.325 53.6175 86.6006 53.3799L88.0118 54.8625C87.2801 55.6988 86.1871 56.1169 84.7331 56.1169C83.8303 56.1169 83.0367 55.9459 82.3525 55.6037C81.6682 55.2616 81.136 54.7864 80.7558 54.1782C80.3852 53.57 80.1999 52.881 80.1999 52.1112C80.1999 51.3509 80.3852 50.6714 80.7558 50.0726C81.1265 49.4644 81.6349 48.9892 82.2812 48.6471C82.9369 48.305 83.6687 48.1339 84.4765 48.1339C85.2273 48.1339 85.9115 48.2907 86.5293 48.6043C87.1565 48.9085 87.6555 49.3599 88.0261 49.9586C88.3967 50.5478 88.5821 51.2511 88.5821 52.0684L83.0652 53.1233C83.3598 53.741 83.9443 54.0499 84.8186 54.0499ZM84.4908 50.0584C84.0251 50.0584 83.6449 50.2057 83.3503 50.5003C83.0557 50.7854 82.8894 51.1988 82.8514 51.7405L85.9876 51.1275C85.8925 50.8044 85.712 50.5478 85.4459 50.3577C85.1798 50.1582 84.8614 50.0584 84.4908 50.0584Z" fill="black"/>
<path d="M93.4945 53.2373H92.5821V55.9886H89.8736V48.2622H92.5821V51.1133H93.5515L95.4475 48.2622H98.3128L95.7183 51.9686L98.4839 55.9886H95.2907L93.4945 53.2373Z" fill="black"/>
<path d="M109.446 48.1339C110.396 48.1339 111.152 48.419 111.713 48.9892C112.283 49.5594 112.568 50.4195 112.568 51.5695V55.9886H109.86V52.0114C109.86 51.4697 109.755 51.0705 109.546 50.8139C109.346 50.5573 109.061 50.429 108.691 50.429C108.282 50.429 107.954 50.5716 107.707 50.8567C107.46 51.1418 107.336 51.5742 107.336 52.1539V55.9886H104.628V52.0114C104.628 50.9565 104.238 50.429 103.459 50.429C103.041 50.429 102.708 50.5716 102.461 50.8567C102.214 51.1418 102.09 51.5742 102.09 52.1539V55.9886H99.3818V48.2622H101.962V49.0748C102.247 48.7611 102.585 48.5283 102.974 48.3763C103.373 48.2147 103.806 48.1339 104.271 48.1339C104.813 48.1339 105.298 48.2337 105.725 48.4333C106.153 48.6329 106.5 48.937 106.766 49.3456C107.07 48.956 107.455 48.6566 107.921 48.4475C108.386 48.2385 108.895 48.1339 109.446 48.1339Z" fill="black"/>
<path d="M114.208 48.2622H116.902V51.1275H119.682V48.2622H122.391V55.9886H119.682V53.2801H116.902V55.9886H114.208V48.2622Z" fill="black"/>
<path d="M127.895 56.2167C125.339 56.2167 124.061 55.119 124.061 52.9237V48.2622H126.755V50.7141C126.954 50.5811 127.221 50.4718 127.553 50.3863C127.895 50.3007 128.285 50.258 128.722 50.258C129.672 50.258 130.418 50.5003 130.96 50.985C131.502 51.4602 131.773 52.1682 131.773 53.109C131.773 54.1259 131.421 54.9005 130.718 55.4327C130.024 55.9554 129.083 56.2167 127.895 56.2167ZM132.414 48.2622H135.123V55.9886H132.414V48.2622ZM127.895 54.3635C128.266 54.3635 128.546 54.2542 128.736 54.0356C128.926 53.8171 129.021 53.5272 129.021 53.1661C129.021 52.8144 128.926 52.5388 128.736 52.3392C128.546 52.1397 128.271 52.0399 127.91 52.0399C127.653 52.0399 127.425 52.0874 127.225 52.1824C127.026 52.2775 126.869 52.4058 126.755 52.5673V53.1661C126.755 53.5367 126.85 53.8313 127.04 54.0499C127.23 54.259 127.515 54.3635 127.895 54.3635Z" fill="black"/>
<path d="M141.033 54.0499C141.403 54.0499 141.722 53.9976 141.988 53.8931C142.263 53.7885 142.539 53.6175 142.815 53.3799L144.226 54.8625C143.494 55.6988 142.401 56.1169 140.947 56.1169C140.044 56.1169 139.251 55.9459 138.567 55.6037C137.882 55.2616 137.35 54.7864 136.97 54.1782C136.599 53.57 136.414 52.881 136.414 52.1112C136.414 51.3509 136.599 50.6714 136.97 50.0726C137.341 49.4644 137.849 48.9892 138.495 48.6471C139.151 48.305 139.883 48.1339 140.691 48.1339C141.441 48.1339 142.126 48.2907 142.743 48.6043C143.371 48.9085 143.87 49.3599 144.24 49.9586C144.611 50.5478 144.796 51.2511 144.796 52.0684L139.279 53.1233C139.574 53.741 140.158 54.0499 141.033 54.0499ZM140.705 50.0584C140.239 50.0584 139.859 50.2057 139.564 50.5003C139.27 50.7854 139.103 51.1988 139.065 51.7405L142.202 51.1275C142.107 50.8044 141.926 50.5478 141.66 50.3577C141.394 50.1582 141.075 50.0584 140.705 50.0584Z" fill="black"/>
<path d="M154.114 56.1169C153.258 56.1169 152.493 55.9459 151.819 55.6037C151.144 55.2616 150.616 54.7864 150.236 54.1782C149.866 53.57 149.68 52.881 149.68 52.1112C149.68 51.3414 149.866 50.6571 150.236 50.0584C150.616 49.4502 151.144 48.9797 151.819 48.6471C152.493 48.305 153.258 48.1339 154.114 48.1339C154.988 48.1339 155.744 48.324 156.38 48.7041C157.017 49.0748 157.468 49.5927 157.735 50.258L155.639 51.3271C155.287 50.6334 154.774 50.2865 154.099 50.2865C153.615 50.2865 153.211 50.448 152.888 50.7712C152.574 51.0943 152.417 51.5409 152.417 52.1112C152.417 52.6909 152.574 53.1471 152.888 53.4797C153.211 53.8028 153.615 53.9644 154.099 53.9644C154.774 53.9644 155.287 53.6175 155.639 52.9237L157.735 53.9929C157.468 54.6581 157.017 55.1808 156.38 55.561C155.744 55.9316 154.988 56.1169 154.114 56.1169Z" fill="black"/>
<path d="M166.822 48.2622V55.9886H164.242V55.1761C163.957 55.4802 163.614 55.713 163.215 55.8746C162.826 56.0361 162.408 56.1169 161.961 56.1169C160.953 56.1169 160.15 55.8223 159.552 55.2331C158.962 54.6439 158.668 53.76 158.668 52.5816V48.2622H161.376V52.1397C161.376 53.2516 161.809 53.8076 162.674 53.8076C163.101 53.8076 163.448 53.6602 163.714 53.3656C163.98 53.0615 164.113 52.6006 164.113 51.9829V48.2622H166.822Z" fill="black"/>
<path d="M172.518 56.1169C171.662 56.1169 170.897 55.9459 170.222 55.6037C169.548 55.2616 169.02 54.7864 168.64 54.1782C168.27 53.57 168.084 52.881 168.084 52.1112C168.084 51.3414 168.27 50.6571 168.64 50.0584C169.02 49.4502 169.548 48.9797 170.222 48.6471C170.897 48.305 171.662 48.1339 172.518 48.1339C173.392 48.1339 174.147 48.324 174.784 48.7041C175.421 49.0748 175.872 49.5927 176.138 50.258L174.043 51.3271C173.691 50.6334 173.178 50.2865 172.503 50.2865C172.019 50.2865 171.615 50.448 171.292 50.7712C170.978 51.0943 170.821 51.5409 170.821 52.1112C170.821 52.6909 170.978 53.1471 171.292 53.4797C171.615 53.8028 172.019 53.9644 172.503 53.9644C173.178 53.9644 173.691 53.6175 174.043 52.9237L176.138 53.9929C175.872 54.6581 175.421 55.1808 174.784 55.561C174.147 55.9316 173.392 56.1169 172.518 56.1169Z" fill="black"/>
<path d="M187.336 48.1339C188.286 48.1339 189.042 48.419 189.602 48.9892C190.172 49.5594 190.458 50.4195 190.458 51.5695V55.9886H187.749V52.0114C187.749 51.4697 187.645 51.0705 187.435 50.8139C187.236 50.5573 186.951 50.429 186.58 50.429C186.171 50.429 185.844 50.5716 185.596 50.8567C185.349 51.1418 185.226 51.5742 185.226 52.1539V55.9886H182.517V52.0114C182.517 50.9565 182.128 50.429 181.348 50.429C180.93 50.429 180.598 50.5716 180.35 50.8567C180.103 51.1418 179.98 51.5742 179.98 52.1539V55.9886H177.271V48.2622H179.852V49.0748C180.137 48.7611 180.474 48.5283 180.864 48.3763C181.263 48.2147 181.695 48.1339 182.161 48.1339C182.703 48.1339 183.187 48.2337 183.615 48.4333C184.043 48.6329 184.39 48.937 184.656 49.3456C184.96 48.956 185.345 48.6566 185.81 48.4475C186.276 48.2385 186.784 48.1339 187.336 48.1339Z" fill="black"/>
<path d="M196.189 54.0499C196.559 54.0499 196.878 53.9976 197.144 53.8931C197.42 53.7885 197.695 53.6175 197.971 53.3799L199.382 54.8625C198.65 55.6988 197.557 56.1169 196.103 56.1169C195.2 56.1169 194.407 55.9459 193.723 55.6037C193.038 55.2616 192.506 54.7864 192.126 54.1782C191.755 53.57 191.57 52.881 191.57 52.1112C191.57 51.3509 191.755 50.6714 192.126 50.0726C192.497 49.4644 193.005 48.9892 193.651 48.6471C194.307 48.305 195.039 48.1339 195.847 48.1339C196.597 48.1339 197.282 48.2907 197.899 48.6043C198.527 48.9085 199.026 49.3599 199.396 49.9586C199.767 50.5478 199.952 51.2511 199.952 52.0684L194.435 53.1233C194.73 53.741 195.314 54.0499 196.189 54.0499ZM195.861 50.0584C195.395 50.0584 195.015 50.2057 194.72 50.5003C194.426 50.7854 194.26 51.1988 194.222 51.7405L197.358 51.1275C197.263 50.8044 197.082 50.5478 196.816 50.3577C196.55 50.1582 196.232 50.0584 195.861 50.0584Z" fill="black"/>
<path d="M208.742 55.9886V51.9258L206.761 55.3044H205.606L203.681 51.8688V55.9886H201.244V48.2622H204.095L206.247 52.2965L208.614 48.2622H211.166L211.18 55.9886H208.742Z" fill="black"/>
<path d="M216.685 56.2167C214.129 56.2167 212.85 55.119 212.85 52.9237V48.2622H215.545V50.7141C215.744 50.5811 216.01 50.4718 216.343 50.3863C216.685 50.3007 217.075 50.258 217.512 50.258C218.462 50.258 219.208 50.5003 219.75 50.985C220.292 51.4602 220.563 52.1682 220.563 53.109C220.563 54.1259 220.211 54.9005 219.508 55.4327C218.814 55.9554 217.873 56.2167 216.685 56.2167ZM221.204 48.2622H223.913V55.9886H221.204V48.2622ZM216.685 54.3635C217.056 54.3635 217.336 54.2542 217.526 54.0356C217.716 53.8171 217.811 53.5272 217.811 53.1661C217.811 52.8144 217.716 52.5388 217.526 52.3392C217.336 52.1397 217.061 52.0399 216.699 52.0399C216.443 52.0399 216.215 52.0874 216.015 52.1824C215.816 52.2775 215.659 52.4058 215.545 52.5673V53.1661C215.545 53.5367 215.64 53.8313 215.83 54.0499C216.02 54.259 216.305 54.3635 216.685 54.3635Z" fill="black"/>
<path d="M8.62554 42.7144L16.6313 24.2754H19.3171V29.492L13.6356 42.7144H17.8709V40.3385C17.8709 39.76 18.835 39.7187 19.3171 39.7704V47.053C17.9948 47.053 17.802 46.6054 17.8709 46.3816V44.3156H12.8608L0.464849 71.9999H0L3.15065 62.4447C3.15065 62.4447 0.36155 61.36 1.29125 59.0358C2.22095 56.7115 7.79914 44.3156 7.79914 44.3156H1.29125V42.7144H8.62554Z" fill="#FF9900"/>
<path d="M29.4921 42.7144L21.4864 24.2754H18.8006V29.492L24.4821 42.7144H20.2468V40.3385C20.2468 39.76 19.2826 39.7187 18.8006 39.7704V47.053C20.1228 47.053 20.3156 46.6054 20.2468 46.3816V44.3156H25.2568L37.6528 71.9999H38.1176L34.967 62.4447C34.967 62.4447 37.7561 61.36 36.8264 59.0358C35.8967 56.7115 30.3185 44.3156 30.3185 44.3156H36.8264V42.7144H29.4921Z" fill="#FF9900"/>
<path fill-rule="evenodd" clip-rule="evenodd" d="M19.1107 21.5897C22.1344 21.5897 24.5856 19.1385 24.5856 16.1148C24.5856 13.0911 22.1344 10.6399 19.1107 10.6399C16.087 10.6399 13.6358 13.0911 13.6358 16.1148C13.6358 19.1385 16.087 21.5897 19.1107 21.5897ZM19.1107 24.5854C23.7889 24.5854 27.5813 20.793 27.5813 16.1148C27.5813 11.4366 23.7889 7.64419 19.1107 7.64419C14.4325 7.64419 10.6401 11.4366 10.6401 16.1148C10.6401 20.793 14.4325 24.5854 19.1107 24.5854Z" fill="black"/>
<path d="M17.5612 0H20.6602V8.16069H17.5612V0Z" fill="black"/>
</svg>
